<?xml version="1.0" encoding="iso-8859-1"?>
<!-- Generator: Adobe Illustrator 24.0.3, SVG Export Plug-In . SVG Version: 6.00 Build 0)  -->
<svg version="1.1" xmlns="http://www.w3.org/2000/svg" xmlns:xlink="http://www.w3.org/1999/xlink"
	x="0px" y="0px"
	viewBox="0 0 64 64" style="enable-background:new 0 0 64 64;" xml:space="preserve">
<g id="avatar-working">
	<path style="fill:orange;" d="M34.47,51.702c0,1.363-1.108,2.467-2.471,2.467c-1.359,0-2.467-1.104-2.467-2.467
		c0-1.359,1.108-2.467,2.467-2.467C33.362,49.235,34.47,50.343,34.47,51.702z"/>
	<path style="fill:black;" d="M41.023,14.766c-0.757-0.502-1.896-1.78-2.321-4.973c-0.039-0.266-0.208-0.494-0.452-0.598
		c-0.097-0.042-0.201-0.062-0.301-0.062c-0.158,0-0.313,0.05-0.444,0.143c-2.259,1.629-7.838-0.251-9.796-1.116
		c-0.336-0.147-0.73-0.035-0.934,0.27l-4.158,6.132l-0.228,0.12c-0.274-2.035-0.579-6.749,1.803-9.916
		c1.46-1.942,3.742-3.023,6.773-3.213c3.456-0.216,6.078,0.656,7.78,2.595C41.544,7.337,41.27,12.638,41.023,14.766z"/>
	<g>
		<path style="fill:black;" d="M39.267,3.61C37.375,1.41,34.461,0.42,30.62,0.666c-3.369,0.215-5.905,1.441-7.527,3.645
			c-0.219,0.298-0.411,0.611-0.591,0.93c1.616-1.686,3.909-2.636,6.831-2.822c3.841-0.245,6.755,0.745,8.647,2.944
			c2.192,2.549,2.686,6.284,2.692,9.115c0.392,0.585,0.793,0.954,1.127,1.181C42.074,13.243,42.378,7.228,39.267,3.61z"/>
	</g>
	<path style="fill:black;" d="M56.715,57.112c-1.158,1.448-2.884,2.232-4.699,2.162l-1.039-0.1v-8.008h2.155v-1.521h-2.155v-7.201
		c0-1.676-1.359-3.039-3.035-3.039H16.06c-1.676,0-3.039,1.363-3.039,3.039v7.201H11.33v1.521h1.691v7.954L11.99,59.27
		c-1.85,0.073-3.552-0.718-4.703-2.158c-1.158-1.448-1.548-3.305-1.066-5.097L10.4,36.481c0.668-2.49,2.402-4.521,4.753-5.576
		l9.027-4.054c0.147,4.186,3.599,7.545,7.819,7.545c4.224,0,7.676-3.359,7.823-7.545l9.027,4.054
		c2.351,1.054,4.081,3.085,4.749,5.576l4.182,15.534C58.263,53.806,57.873,55.664,56.715,57.112z"/>
	<path style="fill:black;" d="M58.553,52.015l-4.182-15.534c-0.668-2.49-2.398-4.521-4.749-5.576l-10.186-4.827
		c-0.014,0.393-0.066,0.776-0.136,1.153l7.619,3.674c2.351,1.054,4.081,3.085,4.749,5.576l4.182,15.534
		c0.483,1.792,0.093,4.035-1.066,5.483c-0.795,0.994-1.86,1.665-3.035,1.972v0.09l1.039,0.1c1.815,0.069,3.541-1.1,4.699-2.548
		C58.645,55.664,59.035,53.806,58.553,52.015z"/>
	<path style="fill:black;" d="M5.524,52.015l4.182-15.534c0.668-2.49,2.398-4.521,4.749-5.576l10.186-4.827
		c0.014,0.393,0.066,0.776,0.136,1.153l-7.619,3.674c-2.351,1.054-4.081,3.085-4.749,5.576L8.227,52.015
		c-0.483,1.792-0.093,4.035,1.066,5.483c0.795,0.994,1.86,1.665,3.035,1.972v0.09l-1.039,0.1c-1.815,0.069-3.541-1.1-4.699-2.548
		C5.431,55.664,5.041,53.806,5.524,52.015z"/>
	<path style="fill:black;" d="M31.999,47.713c-2.197,0-3.985,1.792-3.985,3.989s1.788,3.989,3.985,3.989
		c2.201,0,3.989-1.792,3.989-3.989S34.2,47.713,31.999,47.713z M31.999,54.169c-1.359,0-2.467-1.104-2.467-2.467
		c0-1.359,1.108-2.467,2.467-2.467c1.363,0,2.471,1.108,2.471,2.467C34.47,53.065,33.362,54.169,31.999,54.169z M31.999,47.713
		c-2.197,0-3.985,1.792-3.985,3.989s1.788,3.989,3.985,3.989c2.201,0,3.989-1.792,3.989-3.989S34.2,47.713,31.999,47.713z
		 M31.999,54.169c-1.359,0-2.467-1.104-2.467-2.467c0-1.359,1.108-2.467,2.467-2.467c1.363,0,2.471,1.108,2.471,2.467
		C34.47,53.065,33.362,54.169,31.999,54.169z M31.999,47.713c-2.197,0-3.985,1.792-3.985,3.989s1.788,3.989,3.985,3.989
		c2.201,0,3.989-1.792,3.989-3.989S34.2,47.713,31.999,47.713z M31.999,54.169c-1.359,0-2.467-1.104-2.467-2.467
		c0-1.359,1.108-2.467,2.467-2.467c1.363,0,2.471,1.108,2.471,2.467C34.47,53.065,33.362,54.169,31.999,54.169z M31.999,47.713
		c-2.197,0-3.985,1.792-3.985,3.989s1.788,3.989,3.985,3.989c2.201,0,3.989-1.792,3.989-3.989S34.2,47.713,31.999,47.713z
		 M31.999,54.169c-1.359,0-2.467-1.104-2.467-2.467c0-1.359,1.108-2.467,2.467-2.467c1.363,0,2.471,1.108,2.471,2.467
		C34.47,53.065,33.362,54.169,31.999,54.169z M59.248,51.621l-4.182-15.534c-0.788-2.931-2.826-5.325-5.595-6.568l-9.896-4.44
		c1.73-2.409,2.803-5.626,2.819-9.167c0.158-0.88,1.375-8.336-2.506-12.761c-2.027-2.313-5.062-3.363-9.016-3.116
		c-3.502,0.22-6.159,1.506-7.896,3.823c-3.518,4.684-1.969,11.846-1.904,12.147c0.05,0.232,0.208,0.425,0.421,0.525
		c0.027,0.012,0.05,0.019,0.073,0.027c0.135,3.297,1.185,6.278,2.815,8.541l-9.85,4.421c-2.768,1.243-4.807,3.637-5.599,6.568
		L4.755,51.621c-0.61,2.263-0.12,4.61,1.348,6.441c1.463,1.83,3.645,2.823,5.989,2.726c0.027,0,0.054-0.004,0.081-0.008l0.849-0.127
		v0.309c0,1.676,1.363,3.039,3.039,3.039h31.882c1.676,0,3.035-1.363,3.035-3.039v-0.266l0.931,0.093
		c0.108,0.004,0.212,0.008,0.32,0.008c2.22,0,4.274-0.985,5.672-2.734C59.364,56.231,59.854,53.884,59.248,51.621z M22.389,14.681
		c-0.274-2.035-0.579-6.749,1.803-9.916c1.46-1.942,3.742-3.023,6.773-3.213c3.456-0.216,6.078,0.656,7.78,2.595
		c2.799,3.189,2.525,8.491,2.278,10.618c-0.757-0.502-1.896-1.78-2.321-4.973c-0.039-0.266-0.208-0.494-0.452-0.598
		c-0.097-0.042-0.201-0.062-0.301-0.062c-0.158,0-0.313,0.05-0.444,0.143c-2.259,1.629-7.838-0.251-9.796-1.116
		c-0.336-0.147-0.73-0.035-0.934,0.27l-4.158,6.132L22.389,14.681z M23.072,16.036l0.421-0.22c0.108-0.058,0.205-0.143,0.274-0.247
		l3.915-5.773c1.749,0.703,6.583,2.417,9.692,1.251c0.749,3.684,2.514,4.931,3.491,5.344c-0.212,6.383-4.12,11.483-8.892,11.483
		C27.111,27.875,23.149,22.581,23.072,16.036z M38.308,26.577c-0.004,3.475-2.83,6.301-6.309,6.301c-3.456,0-6.267-2.792-6.305-6.24
		c1.749,1.722,3.923,2.757,6.278,2.757C34.358,29.396,36.552,28.338,38.308,26.577z M49.46,60.961c0,0.838-0.68,1.521-1.517,1.521
		H16.06c-0.838,0-1.521-0.683-1.521-1.521V42.443c0-0.838,0.683-1.521,1.521-1.521h31.882c0.838,0,1.517,0.683,1.517,1.521V60.961z
		 M56.715,57.112c-1.158,1.448-2.884,2.232-4.699,2.162l-1.039-0.1v-8.008h2.155v-1.521h-2.155v-7.201
		c0-1.676-1.359-3.039-3.035-3.039H16.06c-1.676,0-3.039,1.363-3.039,3.039v7.201H11.33v1.521h1.691v7.954L11.99,59.27
		c-1.85,0.073-3.552-0.718-4.703-2.158c-1.158-1.448-1.548-3.305-1.066-5.097L10.4,36.481c0.668-2.49,2.402-4.521,4.753-5.576
		l9.027-4.054c0.147,4.186,3.599,7.545,7.819,7.545c4.224,0,7.676-3.359,7.823-7.545l9.027,4.054
		c2.351,1.054,4.081,3.085,4.749,5.576l4.182,15.534C58.263,53.806,57.873,55.664,56.715,57.112z M31.999,47.713
		c-2.197,0-3.985,1.792-3.985,3.989s1.788,3.989,3.985,3.989c2.201,0,3.989-1.792,3.989-3.989S34.2,47.713,31.999,47.713z
		 M31.999,54.169c-1.359,0-2.467-1.104-2.467-2.467c0-1.359,1.108-2.467,2.467-2.467c1.363,0,2.471,1.108,2.471,2.467
		C34.47,53.065,33.362,54.169,31.999,54.169z M31.999,47.713c-2.197,0-3.985,1.792-3.985,3.989s1.788,3.989,3.985,3.989
		c2.201,0,3.989-1.792,3.989-3.989S34.2,47.713,31.999,47.713z M31.999,54.169c-1.359,0-2.467-1.104-2.467-2.467
		c0-1.359,1.108-2.467,2.467-2.467c1.363,0,2.471,1.108,2.471,2.467C34.47,53.065,33.362,54.169,31.999,54.169z M31.999,47.713
		c-2.197,0-3.985,1.792-3.985,3.989s1.788,3.989,3.985,3.989c2.201,0,3.989-1.792,3.989-3.989S34.2,47.713,31.999,47.713z
		 M31.999,54.169c-1.359,0-2.467-1.104-2.467-2.467c0-1.359,1.108-2.467,2.467-2.467c1.363,0,2.471,1.108,2.471,2.467
		C34.47,53.065,33.362,54.169,31.999,54.169z"/>
</g>
<g id="Layer_1">
</g>
</svg>
