<?xml version="1.0" encoding="iso-8859-1"?>
<!-- Generator: Adobe Illustrator 19.0.0, SVG Export Plug-In . SVG Version: 6.00 Build 0)  -->
<svg xmlns="http://www.w3.org/2000/svg" xmlns:xlink="http://www.w3.org/1999/xlink" version="1.1" id="Layer_1" x="0px" y="0px" viewBox="0 0 512 512" style="enable-background:new 0 0 512 512;" xml:space="preserve">
<circle style="fill:#8C50D7;" cx="256" cy="256" r="247.409"/>
<path style="fill:#733CB9;" d="M290.362,443.848c-122.723,0-222.21-99.487-222.21-222.21c0-97.483,62.8-180.245,150.128-210.189  C99.543,29.612,8.591,132.184,8.591,256c0,136.64,110.77,247.409,247.409,247.409c123.817,0,226.388-90.953,244.552-209.69  C470.606,381.048,387.845,443.848,290.362,443.848z"/>
<g>
	<path style="fill:#AA6EFF;" d="M301.826,97.159c-0.796,0-1.61-0.108-2.416-0.326c-14.068-3.83-28.672-5.772-43.41-5.772   c-5.065,0-9.163-4.103-9.163-9.163c0-5.06,4.098-9.163,9.163-9.163c16.358,0,32.581,2.157,48.224,6.417   c4.886,1.329,7.767,6.367,6.434,11.248C309.548,94.474,305.852,97.159,301.826,97.159z"/>
	<path style="fill:#AA6EFF;" d="M429.145,246.846c-4.635,0-8.609-3.499-9.1-8.21c-5.262-50.229-34.139-96.184-77.252-122.921   c-4.295-2.667-5.619-8.313-2.953-12.613c2.667-4.291,8.313-5.633,12.618-2.957c47.893,29.701,79.973,80.761,85.808,136.586   c0.528,5.034-3.124,9.539-8.152,10.067C429.781,246.828,429.459,246.846,429.145,246.846z"/>
</g>
<path d="M365.22,211.868c0.93-4.653-2.087-9.178-6.74-10.108c-4.655-0.93-9.178,2.087-10.108,6.74l-4.117,20.583H315.96  l3.443-17.214c0.93-4.653-2.087-9.178-6.74-10.108c-4.656-0.93-9.177,2.087-10.108,6.74l-4.117,20.583H283.49  c-4.744,0-8.591,3.846-8.591,8.591c0,4.744,3.846,8.591,8.591,8.591h11.513l-3.894,19.472h-16.781c-4.744,0-8.591,3.846-8.591,8.591  c0,4.744,3.846,8.591,8.591,8.591h13.345l-3.443,17.214c-0.93,4.653,2.087,9.178,6.74,10.108c0.569,0.113,1.135,0.168,1.694,0.168  c4.011,0,7.598-2.823,8.415-6.908l4.117-20.583h28.295l-3.443,17.214c-0.93,4.653,2.087,9.178,6.74,10.108  c0.569,0.113,1.135,0.168,1.694,0.168c4.011,0,7.598-2.823,8.415-6.908l4.115-20.583h14.949c4.744,0,8.591-3.846,8.591-8.591  c0-4.744-3.846-8.591-8.591-8.591h-11.513l3.894-19.472h16.781c4.744,0,8.591-3.846,8.591-8.591c0-4.744-3.846-8.591-8.591-8.591  h-13.345L365.22,211.868z M336.925,265.736h-28.295l3.894-19.472h28.295L336.925,265.736z"/>
<path d="M201.02,191.284c11.392,0,22.367,3.458,31.736,9.998c3.891,2.717,9.245,1.765,11.962-2.126  c2.716-3.89,1.765-9.246-2.126-11.962c-12.269-8.564-26.643-13.092-41.572-13.092c-40.106,0-72.734,32.628-72.734,72.734v18.327  c0,40.106,32.628,72.734,72.734,72.734c14.929,0,29.304-4.528,41.572-13.093c3.89-2.717,4.842-8.072,2.125-11.962  s-8.073-4.843-11.962-2.125c-9.368,6.54-20.341,9.998-31.735,9.998c-30.632,0-55.553-24.921-55.553-55.553v-18.327  C145.468,216.205,170.388,191.284,201.02,191.284z"/>
<path d="M437.02,74.98C388.668,26.629,324.38,0,256,0S123.332,26.629,74.98,74.98C26.629,123.332,0,187.62,0,256  s26.629,132.668,74.98,181.02C123.332,485.371,187.62,512,256,512s132.668-26.629,181.02-74.98C485.371,388.668,512,324.38,512,256  S485.371,123.332,437.02,74.98z M256,494.819C124.315,494.819,17.181,387.685,17.181,256S124.315,17.181,256,17.181  S494.819,124.315,494.819,256S387.685,494.819,256,494.819z"/>
<path d="M53.834,256c0-111.474,90.692-202.166,202.166-202.166c35.07,0,69.615,9.116,99.901,26.366  c4.124,2.349,9.368,0.909,11.716-3.213c2.348-4.123,0.909-9.368-3.213-11.716C331.532,46.55,294.046,36.653,256,36.653  C135.052,36.653,36.653,135.052,36.653,256c0,50.915,17.839,100.527,50.231,139.698c1.699,2.054,4.152,3.116,6.625,3.116  c1.928,0,3.867-0.646,5.469-1.97c3.656-3.024,4.169-8.438,1.145-12.094C70.275,348.651,53.834,302.928,53.834,256z"/>
<path d="M446.706,147.555c-2.349-4.122-7.594-5.56-11.716-3.211s-5.56,7.594-3.211,11.716c17.263,30.295,26.387,64.853,26.387,99.94  c0,111.474-90.692,202.166-202.166,202.166c-47.079,0-92.916-16.534-129.071-46.556c-3.65-3.031-9.066-2.529-12.098,1.121  c-3.031,3.65-2.529,9.066,1.121,12.098c39.233,32.577,88.969,50.518,140.047,50.518c120.948,0,219.347-98.399,219.347-219.347  C475.347,217.937,465.444,180.436,446.706,147.555z"/>
<path d="M387.866,102.756c7.63,6.571,14.83,13.772,21.4,21.403c1.699,1.974,4.099,2.985,6.514,2.985c1.985,0,3.979-0.684,5.601-2.08  c3.595-3.096,4.001-8.52,0.905-12.115c-7.126-8.276-14.934-16.084-23.207-23.211c-3.595-3.097-9.019-2.693-12.115,0.903  C383.867,94.235,384.271,99.66,387.866,102.756z"/>
<g>
</g>
<g>
</g>
<g>
</g>
<g>
</g>
<g>
</g>
<g>
</g>
<g>
</g>
<g>
</g>
<g>
</g>
<g>
</g>
<g>
</g>
<g>
</g>
<g>
</g>
<g>
</g>
<g>
</g>
</svg>
