<svg xmlns="http://www.w3.org/2000/svg" viewBox="0 0 64 64"><defs><style>.cls-1{fill:#8dd5f6;}.cls-2{fill:#aedff7;}.cls-3{fill:#f6fafd;}</style></defs><title>68-JS Code</title><g id="_69-Cloud" data-name="69-Cloud"><g id="_Group_" data-name="&lt;Group&gt;"><path class="cls-1" d="M54.2,21.45A11.991,11.991,0,0,1,51,45H13a12,12,0,0,1,0-24,12.17,12.17,0,0,1,4.02.7A11.977,11.977,0,0,1,29,10a12.405,12.405,0,0,1,1.95.17A12.984,12.984,0,0,1,54.2,21.45Z"/></g><path class="cls-2" d="M54.2,21.45A13.157,13.157,0,0,0,54.831,19H54.8c-7.6,0-7.6,2-15.2,2s-7.6-2-15.2-2a25.277,25.277,0,0,0-7.181.891A11.976,11.976,0,0,0,17.02,21.7,12.17,12.17,0,0,0,13,21,11.991,11.991,0,0,0,2.479,27.228,25.227,25.227,0,0,0,9.2,28c7.6,0,7.6-2,15.2-2s7.6,2,15.2,2,7.6-2,15.2-2a25.376,25.376,0,0,1,6.4.7A12.029,12.029,0,0,0,54.2,21.45Z"/><path class="cls-3" d="M52.943,10a12.974,12.974,0,0,0-21.88,0c-.037.057-.077.112-.113.17A12.405,12.405,0,0,0,29,10a11.969,11.969,0,0,0-11.787,9.891A25.277,25.277,0,0,1,24.394,19c7.6,0,7.6,2,15.2,2s7.6-2,15.2-2h.034A12.712,12.712,0,0,0,55,17,12.926,12.926,0,0,0,52.943,10Z"/><circle class="cls-3" cx="37.5" cy="24.5" r="9.5"/><circle class="cls-3" cx="14.5" cy="33.5" r="9.5"/><path class="cls-3" d="M38.5,37a9.494,9.494,0,0,0-9.37,8H47.87A9.494,9.494,0,0,0,38.5,37Z"/><path d="M55.464,20.8A13.824,13.824,0,0,0,56,17,13.99,13.99,0,0,0,30.462,9.093,11.923,11.923,0,0,0,29,9,12.907,12.907,0,0,0,16.109,20.386,12.814,12.814,0,0,0,13,20a13,13,0,0,0,0,26V44a11,11,0,1,1,3.68-21.354,1,1,0,0,0,1.335-.918A10.93,10.93,0,0,1,29,11a11.048,11.048,0,0,1,1.79.159A.988.988,0,0,0,31.8,10.7,11.984,11.984,0,0,1,53.264,21.1a1,1,0,0,0,.673,1.306A10.995,10.995,0,0,1,51,44v2a12.994,12.994,0,0,0,4.464-25.2Z"/><polygon points="17 41 17 27 15 27 15 33 11 33 11 27 9 27 9 41 11 41 11 35 15 35 15 41 17 41"/><polygon points="19 29 22 29 22 41 24 41 24 29 27 29 27 27 19 27 19 29"/><path d="M37,41V28a1,1,0,0,0-1.937-.352L33,33.152l-2.063-5.5A1,1,0,0,0,29,28V41h2V33.515l1.063,2.837a1,1,0,0,0,1.874,0L35,33.515V41Z"/><path d="M39,27V38a2.916,2.916,0,0,0,3,3h4V39H42a.915.915,0,0,1-1-1V27Z"/><path d="M45,45a3,3,0,0,1,3,3h2a5,5,0,1,0-5,5,3,3,0,1,1-3,3H40a5,5,0,1,0,5-5,3,3,0,0,1,0-6Z"/><path d="M33,45a3,3,0,0,1,3,3h2a5,5,0,1,0-5,5,3,3,0,1,1-3,3H28a5,5,0,1,0,5-5,3,3,0,0,1,0-6Z"/><path d="M21,45a3,3,0,0,1,3,3h2a5,5,0,0,0-10,0v8a5,5,0,0,0,10,0H24a3,3,0,0,1-6,0V48A3,3,0,0,1,21,45Z"/><rect x="43" y="32" width="2" height="2"/><rect x="47" y="32" width="2" height="2"/><rect x="12" y="51" width="2" height="2"/><rect x="8" y="51" width="2" height="2"/><path d="M26,22a3.887,3.887,0,0,0,4,4h2a4.821,4.821,0,0,0,5-5V11H35v9.994A2.854,2.854,0,0,1,32,24H30a1.883,1.883,0,0,1-2-2V20H26Z"/><path d="M45,10a3,3,0,0,1,3,3h2a5,5,0,1,0-5,5,3,3,0,1,1-3,3H40a5,5,0,1,0,5-5,3,3,0,0,1,0-6Z"/><rect x="30" y="15" width="2" height="2"/><rect x="26" y="15" width="2" height="2"/></g></svg>