<?xml version="1.0" encoding="utf-8"?>
<!-- Generator: Adobe Illustrator 23.0.5, SVG Export Plug-In . SVG Version: 6.00 Build 0)  -->
<svg version="1.1" id="Слой_1" xmlns="http://www.w3.org/2000/svg" xmlns:xlink="http://www.w3.org/1999/xlink" x="0px" y="0px"
	 viewBox="0 0 780.2 482.7" style="enable-background:new 0 0 780.2 482.7;" xml:space="preserve">
<style type="text/css">
	.st0{fill:#455A64;}
	.st1{fill:#1A2326;}
	.st2{fill:url(#SVGID_1_);}
	.st3{fill:#4E5E6D;}
	.st4{fill:#587287;}
	.st5{fill:#DEDEDE;}
	.st6{fill:#4E85DE;}
	.st7{fill:#90C0FC;}
	.st8{fill:#E38563;}
</style>
<g>
	<g>
		<g>
			<path class="st0" d="M735.7,476.2h-691c-8,0-14.6-6.5-14.6-14.6V14.6c0-8,6.5-14.6,14.6-14.6h691c8,0,14.6,6.5,14.6,14.6v447.1
				C750.2,469.7,743.7,476.2,735.7,476.2z"/>
		</g>
		<g>
			<path class="st0" d="M766.6,482.7H13.6C6.1,482.7,0,476.6,0,469l0-28h780.2v28C780.2,476.6,774.1,482.7,766.6,482.7z"/>
		</g>
		<g>
			<path class="st1" d="M721.4,434.8H56.9c-4.1,0-7.5-3.4-7.5-7.5V26.4c0-4.1,3.4-7.5,7.5-7.5h664.5c4.1,0,7.5,3.4,7.5,7.5v400.9
				C728.9,431.5,725.5,434.8,721.4,434.8z"/>
		</g>
		<g>
			<polygon class="st1" points="291.4,441 303.2,456.4 470,456.4 481,441 			"/>
		</g>
	</g>
	<g>
		<linearGradient id="SVGID_1_" gradientUnits="userSpaceOnUse" x1="62.7264" y1="228.141" x2="711.9521" y2="228.141">
			<stop  offset="0" style="stop-color:#454C60"/>
			<stop  offset="0.5387" style="stop-color:#41485E"/>
			<stop  offset="1" style="stop-color:#37405B"/>
		</linearGradient>
		<rect x="62.7" y="32.4" class="st2" width="649.2" height="391.6"/>
	</g>
	<rect x="362.1" y="240.1" class="st3" width="323.1" height="167.7"/>
	<rect x="362.1" y="240.1" class="st4" width="323.1" height="27.8"/>
	<rect x="370.7" y="362" class="st5" width="124.8" height="9.9"/>
	<rect x="370.7" y="341.4" class="st5" width="195" height="9.9"/>
	<rect x="370.7" y="320.7" class="st5" width="174.9" height="9.9"/>
	<rect x="370.7" y="300" class="st5" width="124.8" height="9.9"/>
	<rect x="370.7" y="279.4" class="st5" width="141.9" height="9.9"/>
	<g>
		<circle class="st5" cx="380.5" cy="254.7" r="7"/>
		<circle class="st5" cx="403" cy="254.7" r="7"/>
		<circle class="st5" cx="429.1" cy="254.7" r="7"/>
	</g>
	<rect y="441" class="st1" width="780.2" height="4.5"/>
</g>
<g>
	<g>
		<rect x="81.5" y="61.2" class="st5" width="64.8" height="6.6"/>
	</g>
	<g>
		<rect x="164.5" y="111.1" class="st5" width="46.8" height="6.6"/>
	</g>
	<g>
		<rect x="218.5" y="111.1" class="st6" width="31" height="6.6"/>
	</g>
	<g>
		<rect x="282" y="311.7" class="st6" width="31" height="6.6"/>
	</g>
	<g>
		<rect x="255.7" y="111.1" class="st5" width="75" height="6.6"/>
	</g>
	<g>
		<rect x="82.2" y="211.6" class="st5" width="48.2" height="6.6"/>
	</g>
	<g>
		<rect x="211.7" y="261.8" class="st5" width="48.2" height="6.6"/>
	</g>
	<g>
		<rect x="149.4" y="261.8" class="st5" width="29.4" height="6.6"/>
	</g>
	<g>
		<rect x="82.2" y="261.8" class="st6" width="58.3" height="6.6"/>
	</g>
	<g>
		<rect x="82.2" y="286.7" class="st5" width="32.1" height="6.6"/>
	</g>
	<g>
		<rect x="158.9" y="61.2" class="st7" width="46" height="6.6"/>
	</g>
	<g>
		<rect x="158.9" y="136.1" class="st6" width="46" height="6.6"/>
	</g>
	<g>
		<rect x="135.9" y="161.1" class="st5" width="19.7" height="6.6"/>
	</g>
	<g>
		<rect x="116.3" y="186.4" class="st7" width="44.2" height="6.6"/>
	</g>
	<g>
		<rect x="167.1" y="186.4" class="st6" width="61" height="6.6"/>
	</g>
	<g>
		<rect x="82.2" y="161.3" class="st6" width="46" height="6.6"/>
	</g>
	<g>
		<rect x="164.8" y="161.3" class="st8" width="25.8" height="6.6"/>
	</g>
	<g>
		<rect x="82.1" y="111.1" class="st7" width="46" height="6.6"/>
	</g>
	<g>
		<rect x="122.7" y="236.8" class="st7" width="46" height="6.6"/>
	</g>
	<g>
		<rect x="123.3" y="286.7" class="st7" width="46" height="6.6"/>
	</g>
	<g>
		<rect x="205" y="286.7" class="st7" width="46" height="6.6"/>
	</g>
	<g>
		<rect x="82.1" y="136.1" class="st7" width="65.6" height="6.6"/>
	</g>
	<g>
		<rect x="389.4" y="61.2" class="st7" width="46" height="6.6"/>
	</g>
	<g>
		<rect x="225.5" y="311.7" class="st7" width="46" height="6.6"/>
	</g>
	<g>
		<rect x="449.7" y="61.2" class="st7" width="30.8" height="6.6"/>
	</g>
	<g>
		<rect x="553.9" y="86.1" class="st7" width="30.8" height="6.6"/>
	</g>
	<g>
		<rect x="217.3" y="61.2" class="st6" width="58.6" height="6.6"/>
	</g>
	<g>
		<rect x="118.5" y="311.7" class="st6" width="58.6" height="6.6"/>
	</g>
	<g>
		<rect x="445.7" y="86.1" class="st6" width="58.6" height="6.6"/>
	</g>
	<g>
		<rect x="373.8" y="111.1" class="st6" width="58.6" height="6.6"/>
	</g>
	<g>
		<rect x="188" y="261.8" class="st8" width="12.6" height="6.6"/>
	</g>
	<g>
		<rect x="319.3" y="61.2" class="st8" width="58.6" height="6.6"/>
	</g>
	<g>
		<rect x="225.5" y="237.1" class="st8" width="34.4" height="6.6"/>
	</g>
	<g>
		<rect x="286.8" y="61.2" class="st5" width="21.5" height="6.6"/>
	</g>
	<g>
		<rect x="217.3" y="136.1" class="st5" width="21.5" height="6.6"/>
	</g>
	<g>
		<rect x="518.4" y="86.1" class="st5" width="21.5" height="6.6"/>
	</g>
	<g>
		<rect x="81.5" y="86.1" class="st6" width="33.6" height="6.6"/>
	</g>
	<g>
		<rect x="171.1" y="211.8" class="st6" width="26.5" height="6.6"/>
	</g>
	<g>
		<rect x="123.3" y="86.1" class="st6" width="10.8" height="6.6"/>
	</g>
	<g>
		<rect x="345.8" y="86.1" class="st5" width="89.6" height="6.6"/>
	</g>
	<g>
		<rect x="259.9" y="286.7" class="st5" width="89.6" height="6.6"/>
	</g>
	<g>
		<rect x="142.1" y="86.1" class="st8" width="11.1" height="6.6"/>
	</g>
	<g>
		<rect x="308.2" y="86.1" class="st6" width="29.3" height="6.6"/>
	</g>
	<g>
		<rect x="337.5" y="111.1" class="st8" width="29.3" height="6.6"/>
	</g>
	<g>
		<rect x="272.1" y="261.8" class="st8" width="29.3" height="6.6"/>
	</g>
	<g>
		<rect x="186.8" y="311.7" class="st8" width="29.3" height="6.6"/>
	</g>
	<g>
		<rect x="238.1" y="86.1" class="st6" width="62.4" height="6.6"/>
	</g>
	<g>
		<rect x="180.1" y="237.1" class="st6" width="36.4" height="6.6"/>
	</g>
	<g>
		<rect x="177.7" y="286.7" class="st6" width="18.2" height="6.6"/>
	</g>
	<g>
		<rect x="207.8" y="86.1" class="st7" width="21.5" height="6.6"/>
	</g>
	<g>
		<rect x="160.6" y="389.6" class="st5" width="48.2" height="6.6"/>
	</g>
	<g>
		<rect x="289.8" y="389.6" class="st5" width="48.2" height="6.6"/>
	</g>
	<g>
		<rect x="129.1" y="364.6" class="st6" width="60.9" height="6.6"/>
	</g>
	<g>
		<rect x="230.6" y="364.6" class="st5" width="60.9" height="6.6"/>
	</g>
	<g>
		<rect x="218.7" y="389.6" class="st6" width="58.6" height="6.6"/>
	</g>
	<g>
		<rect x="91.9" y="389.6" class="st6" width="58.6" height="6.6"/>
	</g>
	<g>
		<rect x="82.8" y="339.7" class="st6" width="58.6" height="6.6"/>
	</g>
	<g>
		<rect x="152.2" y="339.7" class="st6" width="62.4" height="6.6"/>
	</g>
	<g>
		<rect x="250.8" y="339.7" class="st8" width="26.5" height="6.6"/>
	</g>
	<g>
		<rect x="198.1" y="364.6" class="st8" width="21.5" height="6.6"/>
	</g>
	<g>
		<rect x="94.5" y="364.6" class="st8" width="21.5" height="6.6"/>
	</g>
	<g>
		<rect x="135.6" y="111.1" class="st8" width="21.5" height="6.6"/>
	</g>
	<g>
		<rect x="139.9" y="211.8" class="st8" width="21.5" height="6.6"/>
	</g>
	<g>
		<rect x="162.2" y="86.1" class="st6" width="37.4" height="6.6"/>
	</g>
</g>
</svg>
