<?xml version="1.0" encoding="utf-8"?>
<!-- Generator: Adobe Illustrator 23.0.5, SVG Export Plug-In . SVG Version: 6.00 Build 0)  -->
<svg version="1.1" id="publicdomainvectors.org" xmlns="http://www.w3.org/2000/svg" xmlns:xlink="http://www.w3.org/1999/xlink"
	 x="0px" y="0px" viewBox="0 0 521.47 322.78" style="enable-background:new 0 0 521.47 322.78;" xml:space="preserve">
<style type="text/css">
	.st0{fill-rule:evenodd;clip-rule:evenodd;fill:#85A3AF;}
	.st1{fill-rule:evenodd;clip-rule:evenodd;fill:#6D7A80;}
	.st2{fill-rule:evenodd;clip-rule:evenodd;fill:#EFF6FA;}
	.st3{fill-rule:evenodd;clip-rule:evenodd;fill:#FFFFFF;}
	.st4{fill-rule:evenodd;clip-rule:evenodd;fill:#D3DDE3;}
</style>
<path class="st0" d="M277.94,164.61l54.69,30.09c22.4,12.32,19.75,34.73-5.89,49.8l-106.32,62.52c-25.63,15.07-64.93,17.32-87.33,5
	L78.4,281.93c-22.4-12.32-19.75-34.73,5.89-49.81l106.32-62.51C216.24,154.53,255.54,152.29,277.94,164.61z"/>
<path class="st0" d="M407.22,75.99l106.36,58.52c11.62,6.39,10.24,18.02-3.06,25.84l-163.25,95.99c-13.3,7.82-33.67,8.98-45.29,2.59
	L195.63,200.4c-11.62-6.39-10.24-18.01,3.05-25.83l163.25-95.99C375.23,70.76,395.61,69.6,407.22,75.99z"/>
<path class="st1" d="M219.49,135.73l83.11,45.72l31.13-4.19l-0.02,27.41h0c0.37,5.26-3.34,10.95-10.91,15.4l-163.25,95.99
	c-13.3,7.82-33.68,8.98-45.29,2.59L7.89,260.15c-5.31-2.92-7.9-6.94-7.89-11.18l0,0l0.09-26.74l40.74-5.5l133.37-78.41
	C187.49,130.51,207.87,129.34,219.49,135.73z"/>
<path class="st2" d="M219.49,135.73l83.11,45.72l31.13-4.19l-0.02,13.71h0c0.37,5.25-3.34,10.95-10.91,15.4l-163.25,95.99
	c-13.3,7.82-33.68,8.98-45.29,2.59L7.89,246.44c-5.31-2.92-7.9-6.94-7.89-11.18h0l0.09-13.03l40.74-5.5l133.37-78.41
	C187.49,130.51,207.87,129.34,219.49,135.73z"/>
<path class="st3" d="M219.49,107.59l106.36,58.51c11.62,6.39,10.24,18.02-3.05,25.83l-163.25,95.99
	c-13.29,7.82-33.68,8.98-45.29,2.59L7.89,232.01c-11.62-6.39-10.24-18.02,3.05-25.83l163.25-95.99
	C187.49,102.37,207.87,101.2,219.49,107.59z"/>
<path class="st4" d="M239.29,125.35l54.69,30.09c22.4,12.32,19.75,34.73-5.89,49.8l-106.32,62.52c-25.63,15.07-64.92,17.32-87.32,5
	l-54.69-30.09c-22.4-12.32-19.75-34.73,5.89-49.8l106.32-62.52C177.6,115.28,216.89,113.03,239.29,125.35z"/>
<path class="st3" d="M225.73,122.93l72.96,40.14c14.86,8.17,13.1,23.04-3.9,33.05l-128.85,75.76c-17.01,10-43.08,11.49-57.95,3.32
	l-72.95-40.14c-14.86-8.17-13.1-23.04,3.9-33.05l128.85-75.76C184.8,116.24,210.87,114.75,225.73,122.93z"/>
<path class="st2" d="M140.96,153.76l106.36,58.52c2.86,1.57,2.93,4.18,0.17,5.81l-107.62,63.28c-2.76,1.63-7.36,1.67-10.21,0.1
	L23.3,222.95c-2.85-1.57-2.93-4.18-0.17-5.81l107.62-63.28C133.51,152.24,138.1,152.2,140.96,153.76z"/>
<path class="st2" d="M363.74,16.6L469.7,74.9l8.29-1.12l-0.02,11.9c0.02,0.39,0.02,0.78,0,1.18v0.04l0,0
	c-0.3,4.86-3.99,9.98-10.92,14.06L303.8,196.94c-13.29,7.82-33.68,8.98-45.29,2.59l-106.36-58.52c-5.33-2.93-7.92-6.97-7.88-11.23h0
	l0.09-11.03l6.99-0.95c1.15-0.91,2.44-1.79,3.87-2.63L318.45,19.2C331.75,11.38,352.13,10.21,363.74,16.6z"/>
<path class="st3" d="M363.74,4.12L470.1,62.64c11.61,6.39,10.24,18.01-3.05,25.83L303.8,184.46c-13.3,7.82-33.67,8.98-45.29,2.59
	l-106.36-58.51c-11.61-6.39-10.24-18.02,3.05-25.83L318.45,6.72C331.75-1.1,352.12-2.27,363.74,4.12z"/>
<path class="st2" d="M372.89,18.73l58.33,32.09c16.37,9.01,14.44,25.39-4.3,36.41l-113.73,66.87
	c-18.74,11.02-47.46,12.66-63.84,3.66l-58.33-32.09c-16.37-9.01-14.44-25.39,4.31-36.41l113.73-66.87
	C327.79,11.37,356.52,9.73,372.89,18.73z"/>
<polygon class="st1" points="341.85,9.71 448.11,68.17 322.55,142 216.29,83.54 "/>
<path class="st3" d="M250.48,107.49l28.51,15.68c5.29,2.91,4.66,8.2-1.39,11.76l-17.31,10.18c-6.05,3.56-15.32,4.09-20.61,1.18
	l-28.5-15.68c-5.29-2.91-4.66-8.2,1.39-11.76l17.31-10.18C235.92,105.11,245.2,104.58,250.48,107.49z"/>
<path class="st4" d="M248.03,117.21l13.95,7.67c3.76,2.07,3.32,5.83-0.99,8.36l-4.22,2.49c-4.31,2.53-10.9,2.91-14.66,0.84
	l-13.95-7.68c-3.76-2.07-3.31-5.83,0.98-8.36l4.23-2.48C237.68,115.52,244.27,115.14,248.03,117.21z"/>
<path class="st4" d="M292.57,136.29l16.15,8.89c2.3,1.26,2.03,3.56-0.6,5.12l-2.51,1.47c-2.63,1.55-6.67,1.78-8.97,0.51l-16.15-8.88
	c-2.3-1.27-2.03-3.57,0.6-5.12l2.51-1.48C286.24,135.26,290.27,135.03,292.57,136.29z"/>
<path class="st4" d="M275.26,146.47l16.15,8.89c2.3,1.26,2.03,3.56-0.61,5.12l-2.51,1.48c-2.64,1.55-6.67,1.78-8.97,0.51
	l-16.15-8.88c-2.3-1.27-2.03-3.57,0.61-5.12l2.51-1.48C268.93,145.43,272.96,145.2,275.26,146.47z"/>
<path class="st4" d="M210.82,91.31l16.15,8.89c2.3,1.27,2.03,3.57-0.6,5.12l-2.51,1.48c-2.64,1.55-6.67,1.78-8.97,0.51l-16.15-8.89
	c-2.3-1.26-2.03-3.56,0.61-5.12l2.51-1.48C204.49,90.28,208.52,90.05,210.82,91.31z"/>
<path class="st4" d="M193.51,101.49l16.15,8.89c2.3,1.26,2.03,3.56-0.61,5.12l-2.51,1.47c-2.63,1.55-6.67,1.78-8.97,0.51
	l-16.15-8.88c-2.3-1.26-2.03-3.57,0.61-5.12l2.51-1.48C187.17,100.46,191.21,100.23,193.51,101.49z"/>
<path class="st3" d="M141.7,201.19c7.42,4.08,14.84,8.16,22.25,12.24c3.16,1.74,3.24,4.62,0.19,6.42c-0.97,0.57-1.94,1.14-2.9,1.71
	c-3.05,1.79-8.13,1.84-11.28,0.11c-7.42-4.08-14.84-8.16-22.26-12.25c-3.15-1.73-3.24-4.62-0.19-6.42c0.97-0.57,1.94-1.14,2.91-1.71
	C133.47,199.5,138.54,199.46,141.7,201.19L141.7,201.19z M162.74,188.82c-3.15-1.73-8.23-1.68-11.28,0.11
	c-0.97,0.57-1.93,1.14-2.9,1.71c-3.05,1.79-2.97,4.68,0.19,6.42c7.42,4.08,14.84,8.16,22.25,12.25c3.16,1.73,8.24,1.68,11.29-0.11
	c0.97-0.57,1.94-1.14,2.91-1.71c3.05-1.79,2.97-4.68-0.19-6.42C177.57,196.98,170.16,192.9,162.74,188.82L162.74,188.82z
	 M125.55,168.35l22.26,12.25c3.16,1.74,3.24,4.63,0.19,6.42l-2.91,1.71c-3.05,1.79-8.13,1.84-11.28,0.11l-22.26-12.25
	c-3.16-1.74-3.24-4.63-0.19-6.42l2.91-1.71C117.31,166.67,122.39,166.62,125.55,168.35L125.55,168.35z M199.93,209.28l22.26,12.25
	c3.16,1.74,3.24,4.63,0.19,6.42l-2.9,1.71c-3.05,1.79-8.13,1.84-11.29,0.11l-22.26-12.25c-3.16-1.73-3.24-4.63-0.19-6.42l2.9-1.71
	C191.69,207.59,196.77,207.54,199.93,209.28L199.93,209.28z M120.66,213.56c-3.15-1.74-8.23-1.69-11.28,0.1
	c-0.97,0.57-1.94,1.14-2.91,1.71c-3.05,1.79-2.97,4.69,0.19,6.42c7.42,4.08,14.84,8.16,22.26,12.24c3.16,1.74,8.23,1.69,11.28-0.11
	c0.97-0.57,1.94-1.14,2.91-1.71c3.05-1.8,2.97-4.69-0.19-6.42C135.5,221.72,128.08,217.64,120.66,213.56L120.66,213.56z
	 M99.62,225.93c7.42,4.08,14.84,8.16,22.26,12.24c3.16,1.74,3.24,4.63,0.19,6.42c-0.97,0.57-1.93,1.14-2.91,1.71
	c-3.05,1.79-8.13,1.84-11.28,0.11c-7.42-4.08-14.84-8.16-22.26-12.24c-3.16-1.74-3.24-4.63-0.19-6.42c0.97-0.57,1.93-1.14,2.9-1.71
	C91.39,224.24,96.47,224.19,99.62,225.93L99.62,225.93z M62.43,205.47c-3.15-1.74-8.23-1.69-11.28,0.1l-2.9,1.71
	c-3.05,1.79-2.97,4.68,0.19,6.42l22.25,12.24c3.16,1.73,8.24,1.68,11.29-0.11l2.91-1.71c3.05-1.79,2.97-4.68-0.19-6.42L62.43,205.47
	L62.43,205.47z M136.82,246.39c-3.16-1.74-8.24-1.69-11.29,0.1l-2.91,1.71c-3.05,1.79-2.97,4.68,0.19,6.42l22.26,12.24
	c3.16,1.73,8.24,1.69,11.29-0.11l2.9-1.71c3.05-1.79,2.97-4.68-0.19-6.42L136.82,246.39L136.82,246.39z M83.47,193.1
	c7.42,4.08,14.84,8.16,22.26,12.24c3.16,1.73,3.24,4.62,0.19,6.42c-0.97,0.57-1.94,1.14-2.91,1.71c-3.05,1.8-8.13,1.84-11.28,0.11
	c-7.42-4.08-14.84-8.16-22.26-12.24c-3.15-1.73-3.24-4.63-0.19-6.42c0.97-0.57,1.94-1.14,2.91-1.71
	C75.24,191.41,80.31,191.36,83.47,193.1L83.47,193.1z M157.85,234.02c7.42,4.08,14.84,8.16,22.26,12.24
	c3.15,1.73,3.24,4.62,0.19,6.42c-0.97,0.57-1.94,1.14-2.91,1.71c-3.05,1.79-8.13,1.84-11.29,0.1c-7.42-4.08-14.84-8.16-22.25-12.24
	c-3.16-1.73-3.24-4.62-0.19-6.42c0.97-0.57,1.94-1.14,2.91-1.71C149.62,232.33,154.7,232.29,157.85,234.02L157.85,234.02z
	 M104.51,180.73c-3.16-1.73-8.24-1.69-11.29,0.11c-0.97,0.57-1.93,1.14-2.9,1.71c-3.05,1.8-2.97,4.69,0.19,6.42
	c7.42,4.08,14.84,8.17,22.26,12.24c3.16,1.74,8.23,1.69,11.28-0.1c0.97-0.57,1.94-1.14,2.91-1.71c3.05-1.79,2.97-4.68-0.19-6.42
	C119.35,188.89,111.93,184.81,104.51,180.73L104.51,180.73z M178.89,221.65c-3.16-1.73-8.23-1.69-11.28,0.11
	c-0.97,0.57-1.94,1.14-2.91,1.71c-3.05,1.8-2.97,4.69,0.19,6.42c7.42,4.08,14.84,8.17,22.26,12.25c3.15,1.74,8.23,1.69,11.28-0.11
	c0.97-0.57,1.94-1.14,2.91-1.71c3.05-1.79,2.97-4.68-0.19-6.42C193.73,229.81,186.31,225.73,178.89,221.65z"/>
<path class="st3" d="M54.68,226.72l67.3,37.03c1.9,1.05,1.95,2.78,0.11,3.86l0,0c-1.83,1.08-4.89,1.11-6.79,0.06l-67.3-37.03
	c-1.9-1.04-1.95-2.78-0.11-3.86l0,0C49.73,225.71,52.78,225.68,54.68,226.72L54.68,226.72z M155.31,167.55l67.3,37.03
	c1.9,1.04,1.95,2.78,0.11,3.86l0,0c-1.83,1.08-4.89,1.11-6.78,0.06l-67.3-37.03c-1.9-1.05-1.95-2.78-0.11-3.86l0,0
	C150.36,166.54,153.41,166.51,155.31,167.55z"/>
</svg>
