<?xml version="1.0" encoding="utf-8"?>
<!-- Generator: Adobe Illustrator 24.0.3, SVG Export Plug-In . SVG Version: 6.00 Build 0)  -->
<!DOCTYPE svg PUBLIC "-//W3C//DTD SVG 1.1//EN" "http://www.w3.org/Graphics/SVG/1.1/DTD/svg11.dtd" [
	<!ENTITY ns_extend "http://ns.adobe.com/Extensibility/1.0/">
	<!ENTITY ns_ai "http://ns.adobe.com/AdobeIllustrator/10.0/">
	<!ENTITY ns_graphs "http://ns.adobe.com/Graphs/1.0/">
	<!ENTITY ns_vars "http://ns.adobe.com/Variables/1.0/">
	<!ENTITY ns_imrep "http://ns.adobe.com/ImageReplacement/1.0/">
	<!ENTITY ns_sfw "http://ns.adobe.com/SaveForWeb/1.0/">
	<!ENTITY ns_custom "http://ns.adobe.com/GenericCustomNamespace/1.0/">
	<!ENTITY ns_adobe_xpath "http://ns.adobe.com/XPath/1.0/">
]>
<svg version="1.1"
	 id="Layer_1" xmlns:x="&ns_extend;" xmlns:i="&ns_ai;" xmlns:graph="&ns_graphs;" image-rendering="optimizeQuality" text-rendering="geometricPrecision" shape-rendering="geometricPrecision"
	 xmlns="http://www.w3.org/2000/svg" xmlns:xlink="http://www.w3.org/1999/xlink" x="0px" y="0px" viewBox="0 0 921 1653"
	 style="enable-background:new 0 0 921 1653;" xml:space="preserve">
<style type="text/css">
	.st0{fill-rule:evenodd;clip-rule:evenodd;fill:#898989;}
	.st1{fill-rule:evenodd;clip-rule:evenodd;fill:url(#SVGID_1_);}
	.st2{fill-rule:evenodd;clip-rule:evenodd;fill:url(#SVGID_2_);}
	.st3{fill-rule:evenodd;clip-rule:evenodd;fill:url(#SVGID_3_);}
	.st4{fill-rule:evenodd;clip-rule:evenodd;fill:url(#SVGID_4_);}
	.st5{fill-rule:evenodd;clip-rule:evenodd;fill:#FEFEFE;}
</style>
<metadata>
	<sfw  xmlns="&ns_sfw;">
		<slices></slices>
		<sliceSourceBounds  bottomLeftOrigin="true" height="1653" width="921" x="0" y="0.5"></sliceSourceBounds>
	</sfw>
</metadata>
<path class="st0" d="M84,0h753c46.4,0,84,37.6,84,84v1485c0,46.4-37.6,84-84,84H84c-46.4,0-84-37.6-84-84V84C0,37.6,37.6,0,84,0z"/>
<linearGradient id="SVGID_1_" gradientUnits="userSpaceOnUse" x1="49.033" y1="1237.5" x2="408.74" y2="1237.5" gradientTransform="matrix(1 0 0 -1 0 1653.5)">
	<stop  offset="0" style="stop-color:#2B2A29"/>
	<stop  offset="1" style="stop-color:#000000"/>
</linearGradient>
<path class="st1" d="M87,4h366v824H3V88C3,42,40,4,86,4H87z"/>
<linearGradient id="SVGID_2_" gradientUnits="userSpaceOnUse" x1="500.01" y1="1237.5" x2="870.44" y2="1237.5" gradientTransform="matrix(1 0 0 -1 0 1653.5)">
	<stop  offset="0" style="stop-color:#2B2A29"/>
	<stop  offset="1" style="stop-color:#000000"/>
</linearGradient>
<path class="st2" d="M831,4H454v824h463V88C917,42,878,4,831,4z"/>
<linearGradient id="SVGID_3_" gradientUnits="userSpaceOnUse" x1="49.033" y1="415.5" x2="408.74" y2="415.5" gradientTransform="matrix(1 0 0 -1 0 1653.5)">
	<stop  offset="0" style="stop-color:#2B2A29"/>
	<stop  offset="1" style="stop-color:#000000"/>
</linearGradient>
<path class="st3" d="M87,1649h366V826H3v740c0,46,37,84,83,84L87,1649z"/>
<linearGradient id="SVGID_4_" gradientUnits="userSpaceOnUse" x1="500.01" y1="415.5" x2="870.44" y2="415.5" gradientTransform="matrix(1 0 0 -1 0 1653.5)">
	<stop  offset="0" style="stop-color:#2B2A29"/>
	<stop  offset="1" style="stop-color:#000000"/>
</linearGradient>
<path class="st4" d="M831,1649H454V826h463v740c0,46-39,84-86,84V1649z"/>
<rect x="40" y="150" class="st5" width="839" height="1354"/>
</svg>
